<?xml version="1.0" encoding="UTF-8" standalone="no"?>
<!DOCTYPE svg PUBLIC "-//W3C//DTD SVG 1.1//EN"
 "http://www.w3.org/Graphics/SVG/1.1/DTD/svg11.dtd">
<!-- Generated by graphviz version 9.0.0 (20230911.1827)
 -->
<!-- Title: 05b85865&#45;9556&#45;4818&#45;9e62&#45;7fa732a26bc8 Pages: 1 -->
<svg width="150pt" height="132pt"
 viewBox="0.00 0.00 150.21 131.75" xmlns="http://www.w3.org/2000/svg" xmlns:xlink="http://www.w3.org/1999/xlink">
<g id="graph0" class="graph" transform="scale(1 1) rotate(0) translate(4 127.75)">
<title>05b85865&#45;9556&#45;4818&#45;9e62&#45;7fa732a26bc8</title>
<polygon fill="white" stroke="none" points="-4,4 -4,-127.75 146.21,-127.75 146.21,4 -4,4"/>
<!-- is -->
<g id="node1" class="node">
<title>is</title>
<polygon fill="none" stroke="green" stroke-width="1.5" stroke-dasharray="1,5" points="37.62,-36 1.62,-36 1.62,0 37.62,0 37.62,-36"/>
<text text-anchor="middle" x="19.62" y="-12.57" font-family="Times New Roman,serif" font-size="14.00" fill="#000000">is</text>
</g>
<!-- with -->
<g id="node2" class="node">
<title>with</title>
<polygon fill="none" stroke="green" stroke-width="1.5" stroke-dasharray="1,5" points="39.25,-123.75 0,-123.75 0,-87.75 39.25,-87.75 39.25,-123.75"/>
<text text-anchor="middle" x="19.62" y="-100.33" font-family="Times New Roman,serif" font-size="14.00" fill="#000000">with</text>
</g>
<!-- with&#45;&gt;is -->
<g id="edge1" class="edge">
<title>with&#45;&gt;is</title>
<path fill="none" stroke="blue" stroke-width="1.5" stroke-dasharray="5,2" d="M19.62,-87.4C19.62,-76.24 19.62,-61.46 19.62,-48.49"/>
<polygon fill="blue" stroke="blue" stroke-width="1.5" points="19.63,-46.83 24.13,-36.83 19.63,-41.33 19.63,-37.33 19.63,-37.33 19.63,-37.33 19.63,-41.33 15.13,-36.83 19.63,-46.83"/>
<text text-anchor="middle" x="26.38" y="-56.45" font-family="Times New Roman,serif" font-size="14.00" fill="#000000">sd</text>
</g>
<!-- potatoes -->
<g id="node3" class="node">
<title>potatoes</title>
<ellipse fill="none" stroke="green" stroke-width="1.5" stroke-dasharray="1,5" cx="99.62" cy="-105.75" rx="42.58" ry="18"/>
<text text-anchor="middle" x="99.62" y="-100.33" font-family="Times New Roman,serif" font-size="14.00" fill="#000000">potatoes</text>
</g>
</g>
</svg>
