<?xml version="1.0" encoding="UTF-8" standalone="no"?>
<!DOCTYPE svg PUBLIC "-//W3C//DTD SVG 1.1//EN"
 "http://www.w3.org/Graphics/SVG/1.1/DTD/svg11.dtd">
<!-- Generated by graphviz version 9.0.0 (20230911.1827)
 -->
<!-- Title: 202e1ed5&#45;453d&#45;4240&#45;9015&#45;dc50122ac7fc Pages: 1 -->
<svg width="226pt" height="44pt"
 viewBox="0.00 0.00 226.00 44.00" xmlns="http://www.w3.org/2000/svg" xmlns:xlink="http://www.w3.org/1999/xlink">
<g id="graph0" class="graph" transform="scale(1 1) rotate(0) translate(4 40)">
<title>202e1ed5&#45;453d&#45;4240&#45;9015&#45;dc50122ac7fc</title>
<polygon fill="white" stroke="none" points="-4,4 -4,-40 222,-40 222,4 -4,4"/>
<!-- some -->
<g id="node1" class="node">
<title>some</title>
<polygon fill="none" stroke="red" stroke-width="1.5" stroke-dasharray="1,5" points="46,-36 0,-36 0,0 46,0 46,-36"/>
<text text-anchor="middle" x="23" y="-12.57" font-family="Times New Roman,serif" font-size="14.00" fill="#000000">some</text>
</g>
<!-- potatoes -->
<g id="node2" class="node">
<title>potatoes</title>
<polygon fill="none" stroke="red" stroke-width="1.5" stroke-dasharray="1,5" points="128,-36 64,-36 64,0 128,0 128,-36"/>
<text text-anchor="middle" x="96" y="-12.57" font-family="Times New Roman,serif" font-size="14.00" fill="#000000">potatoes</text>
</g>
<g id="node3" class="node">
<title></title>
<ellipse fill="none" stroke="black" cx="173" cy="-18" rx="27" ry="18"/>
</g>
<!-- &#45;&gt; -->
<g id="edge1" class="edge">
<title>&#45;&gt;</title>
<path fill="none" stroke="blue" stroke-width="1.5" stroke-dasharray="5,2" d="M198.44,-24.69C209.03,-25.15 218,-22.92 218,-18 218,-14.69 213.95,-12.6 208.08,-11.72"/>
<polygon fill="blue" stroke="blue" stroke-width="1.5" points="208.94,-11.76 199.14,-6.84 203.44,-11.52 199.45,-11.35 199.45,-11.35 199.45,-11.35 203.44,-11.52 198.75,-15.83 208.94,-11.76"/>
</g>
</g>
</svg>
