<?xml version="1.0" encoding="UTF-8" standalone="no"?>
<!DOCTYPE svg PUBLIC "-//W3C//DTD SVG 1.1//EN"
 "http://www.w3.org/Graphics/SVG/1.1/DTD/svg11.dtd">
<!-- Generated by graphviz version 9.0.0 (20230911.1827)
 -->
<!-- Title: 4562a802&#45;159e&#45;4773&#45;9584&#45;aec0fff526ed Pages: 1 -->
<svg width="118pt" height="132pt"
 viewBox="0.00 0.00 117.62 131.75" xmlns="http://www.w3.org/2000/svg" xmlns:xlink="http://www.w3.org/1999/xlink">
<g id="graph0" class="graph" transform="scale(1 1) rotate(0) translate(4 127.75)">
<title>4562a802&#45;159e&#45;4773&#45;9584&#45;aec0fff526ed</title>
<polygon fill="white" stroke="none" points="-4,4 -4,-127.75 113.62,-127.75 113.62,4 -4,4"/>
<!-- this -->
<g id="node1" class="node">
<title>this</title>
<polygon fill="none" stroke="blue" stroke-width="1.5" stroke-dasharray="1,5" points="40.62,-36 4.62,-36 4.62,0 40.62,0 40.62,-36"/>
<text text-anchor="middle" x="22.62" y="-12.57" font-family="Times New Roman,serif" font-size="14.00" fill="#000000">this</text>
</g>
<!-- some -->
<g id="node2" class="node">
<title>some</title>
<polygon fill="none" stroke="blue" stroke-width="1.5" stroke-dasharray="1,5" points="109.62,-123.75 63.62,-123.75 63.62,-87.75 109.62,-87.75 109.62,-123.75"/>
<text text-anchor="middle" x="86.62" y="-100.33" font-family="Times New Roman,serif" font-size="14.00" fill="#000000">some</text>
</g>
<!-- word -->
<g id="node3" class="node">
<title>word</title>
<polygon fill="none" stroke="blue" stroke-width="1.5" stroke-dasharray="1,5" points="45.25,-123.75 0,-123.75 0,-87.75 45.25,-87.75 45.25,-123.75"/>
<text text-anchor="middle" x="22.62" y="-100.33" font-family="Times New Roman,serif" font-size="14.00" fill="#000000">word</text>
</g>
<!-- word&#45;&gt;this -->
<g id="edge1" class="edge">
<title>word&#45;&gt;this</title>
<path fill="none" stroke="green" stroke-width="1.5" stroke-dasharray="5,2" d="M22.62,-87.4C22.62,-76.24 22.62,-61.46 22.62,-48.49"/>
<polygon fill="green" stroke="green" stroke-width="1.5" points="22.63,-46.83 27.13,-36.83 22.63,-41.33 22.63,-37.33 22.63,-37.33 22.63,-37.33 22.63,-41.33 18.13,-36.83 22.63,-46.83"/>
<text text-anchor="middle" x="30.88" y="-56.45" font-family="Times New Roman,serif" font-size="14.00" fill="#000000">hui</text>
</g>
</g>
</svg>
