<?xml version="1.0" encoding="UTF-8" standalone="no"?>
<!DOCTYPE svg PUBLIC "-//W3C//DTD SVG 1.1//EN"
 "http://www.w3.org/Graphics/SVG/1.1/DTD/svg11.dtd">
<!-- Generated by graphviz version 9.0.0 (20230911.1827)
 -->
<!-- Title: 4afdc0d4&#45;0592&#45;488c&#45;a8b8&#45;862d4990a76a Pages: 1 -->
<svg width="208pt" height="44pt"
 viewBox="0.00 0.00 208.00 44.00" xmlns="http://www.w3.org/2000/svg" xmlns:xlink="http://www.w3.org/1999/xlink">
<g id="graph0" class="graph" transform="scale(1 1) rotate(0) translate(4 40)">
<title>4afdc0d4&#45;0592&#45;488c&#45;a8b8&#45;862d4990a76a</title>
<polygon fill="white" stroke="none" points="-4,4 -4,-40 204,-40 204,4 -4,4"/>
<!-- this -->
<g id="node1" class="node">
<title>this</title>
<polygon fill="none" stroke="blue" stroke-width="1.5" stroke-dasharray="1,5" points="36,-36 0,-36 0,0 36,0 36,-36"/>
<text text-anchor="middle" x="18" y="-12.57" font-family="Times New Roman,serif" font-size="14.00" fill="#000000">this</text>
</g>
<!-- this&#45;&#45;this -->
<g id="edge1" class="edge">
<title>this&#45;&#45;this</title>
<path fill="none" stroke="red" stroke-width="1.5" stroke-dasharray="5,2" d="M36.15,-24.51C45.54,-25.51 54,-23.34 54,-18 54,-12.66 45.54,-10.49 36.15,-11.49"/>
</g>
<!-- some -->
<g id="node2" class="node">
<title>some</title>
<polygon fill="none" stroke="blue" stroke-width="1.5" stroke-dasharray="1,5" points="118,-36 72,-36 72,0 118,0 118,-36"/>
<text text-anchor="middle" x="95" y="-12.57" font-family="Times New Roman,serif" font-size="14.00" fill="#000000">some</text>
</g>
<!-- potatoes -->
<g id="node3" class="node">
<title>potatoes</title>
<polygon fill="none" stroke="blue" stroke-width="1.5" stroke-dasharray="1,5" points="200,-36 136,-36 136,0 200,0 200,-36"/>
<text text-anchor="middle" x="168" y="-12.57" font-family="Times New Roman,serif" font-size="14.00" fill="#000000">potatoes</text>
</g>
</g>
</svg>
