<?xml version="1.0" encoding="UTF-8" standalone="no"?>
<!DOCTYPE svg PUBLIC "-//W3C//DTD SVG 1.1//EN"
 "http://www.w3.org/Graphics/SVG/1.1/DTD/svg11.dtd">
<!-- Generated by graphviz version 9.0.0 (20230911.1827)
 -->
<!-- Title: 6e0ca0e1&#45;a194&#45;4949&#45;9986&#45;6f58907c51ec Pages: 1 -->
<svg width="335pt" height="44pt"
 viewBox="0.00 0.00 335.20 44.00" xmlns="http://www.w3.org/2000/svg" xmlns:xlink="http://www.w3.org/1999/xlink">
<g id="graph0" class="graph" transform="scale(1 1) rotate(0) translate(4 40)">
<title>6e0ca0e1&#45;a194&#45;4949&#45;9986&#45;6f58907c51ec</title>
<polygon fill="white" stroke="none" points="-4,4 -4,-40 331.2,-40 331.2,4 -4,4"/>
<!-- this -->
<g id="node1" class="node">
<title>this</title>
<ellipse fill="none" stroke="blue" stroke-width="1.5" stroke-dasharray="1,5" cx="23.62" cy="-18" rx="23.62" ry="18"/>
<text text-anchor="middle" x="23.62" y="-12.57" font-family="Times New Roman,serif" font-size="14.00" fill="#000000">this</text>
</g>
<!-- some -->
<g id="node2" class="node">
<title>some</title>
<polygon fill="none" stroke="blue" stroke-width="1.5" stroke-dasharray="1,5" points="111.62,-36 65.62,-36 65.62,0 111.62,0 111.62,-36"/>
<text text-anchor="middle" x="88.62" y="-12.57" font-family="Times New Roman,serif" font-size="14.00" fill="#000000">some</text>
</g>
<!-- with -->
<g id="node3" class="node">
<title>with</title>
<polygon fill="none" stroke="blue" stroke-width="1.5" stroke-dasharray="1,5" points="169.24,-36 129.99,-36 129.99,0 169.24,0 169.24,-36"/>
<text text-anchor="middle" x="149.62" y="-12.57" font-family="Times New Roman,serif" font-size="14.00" fill="#000000">with</text>
</g>
<!-- the -->
<g id="node4" class="node">
<title>the</title>
<polygon fill="none" stroke="blue" stroke-width="1.5" stroke-dasharray="1,5" points="223.62,-36 187.62,-36 187.62,0 223.62,0 223.62,-36"/>
<text text-anchor="middle" x="205.62" y="-12.57" font-family="Times New Roman,serif" font-size="14.00" fill="#000000">the</text>
</g>
<!-- potatoes -->
<g id="node5" class="node">
<title>potatoes</title>
<ellipse fill="none" stroke="blue" stroke-width="1.5" stroke-dasharray="1,5" cx="284.62" cy="-18" rx="42.58" ry="18"/>
<text text-anchor="middle" x="284.62" y="-12.57" font-family="Times New Roman,serif" font-size="14.00" fill="#000000">potatoes</text>
</g>
</g>
</svg>
