<?xml version="1.0" encoding="UTF-8" standalone="no"?>
<!DOCTYPE svg PUBLIC "-//W3C//DTD SVG 1.1//EN"
 "http://www.w3.org/Graphics/SVG/1.1/DTD/svg11.dtd">
<!-- Generated by graphviz version 9.0.0 (20230911.1827)
 -->
<!-- Title: aef1a2d6&#45;dcea&#45;486f&#45;90c4&#45;4f10215a4032 Pages: 1 -->
<svg width="54pt" height="132pt"
 viewBox="0.00 0.00 54.00 131.75" xmlns="http://www.w3.org/2000/svg" xmlns:xlink="http://www.w3.org/1999/xlink">
<g id="graph0" class="graph" transform="scale(1 1) rotate(0) translate(4 127.75)">
<title>aef1a2d6&#45;dcea&#45;486f&#45;90c4&#45;4f10215a4032</title>
<polygon fill="white" stroke="none" points="-4,4 -4,-127.75 50,-127.75 50,4 -4,4"/>
<!-- some -->
<g id="node1" class="node">
<title>some</title>
<polygon fill="none" stroke="black" stroke-width="1.5" stroke-dasharray="1,5" points="46,-36 0,-36 0,0 46,0 46,-36"/>
<text text-anchor="middle" x="23" y="-12.57" font-family="Times New Roman,serif" font-size="14.00" fill="#000000">some</text>
</g>
<!-- with -->
<g id="node2" class="node">
<title>with</title>
<polygon fill="none" stroke="black" stroke-width="1.5" stroke-dasharray="1,5" points="42.62,-123.75 3.38,-123.75 3.38,-87.75 42.62,-87.75 42.62,-123.75"/>
<text text-anchor="middle" x="23" y="-100.33" font-family="Times New Roman,serif" font-size="14.00" fill="#000000">with</text>
</g>
<!-- with&#45;&gt;some -->
<g id="edge1" class="edge">
<title>with&#45;&gt;some</title>
<path fill="none" stroke="black" stroke-width="1.5" stroke-dasharray="5,2" d="M23,-87.4C23,-76.24 23,-61.46 23,-48.49"/>
<polygon fill="black" stroke="black" stroke-width="1.5" points="23,-46.83 27.5,-36.83 23,-41.33 23,-37.33 23,-37.33 23,-37.33 23,-41.33 18.5,-36.83 23,-46.83"/>
<text text-anchor="middle" x="32" y="-56.45" font-family="Times New Roman,serif" font-size="14.00" fill="#000000">sdf</text>
</g>
</g>
</svg>
