<?xml version="1.0" encoding="UTF-8" standalone="no"?>
<!DOCTYPE svg PUBLIC "-//W3C//DTD SVG 1.1//EN"
 "http://www.w3.org/Graphics/SVG/1.1/DTD/svg11.dtd">
<!-- Generated by graphviz version 9.0.0 (20230911.1827)
 -->
<!-- Title: bbafe1b5&#45;c8a7&#45;4554&#45;9954&#45;760237273a44 Pages: 1 -->
<svg width="185pt" height="132pt"
 viewBox="0.00 0.00 185.00 131.75" xmlns="http://www.w3.org/2000/svg" xmlns:xlink="http://www.w3.org/1999/xlink">
<g id="graph0" class="graph" transform="scale(1 1) rotate(0) translate(4 127.75)">
<title>bbafe1b5&#45;c8a7&#45;4554&#45;9954&#45;760237273a44</title>
<polygon fill="white" stroke="none" points="-4,4 -4,-127.75 181,-127.75 181,4 -4,4"/>
<!-- this -->
<g id="node1" class="node">
<title>this</title>
<polygon fill="none" stroke="blue" stroke-width="1.5" stroke-dasharray="1,5" points="41,-123.75 5,-123.75 5,-87.75 41,-87.75 41,-123.75"/>
<text text-anchor="middle" x="23" y="-100.33" font-family="Times New Roman,serif" font-size="14.00" fill="#000000">this</text>
</g>
<!-- some -->
<g id="node2" class="node">
<title>some</title>
<polygon fill="none" stroke="blue" stroke-width="1.5" stroke-dasharray="1,5" points="46,-36 0,-36 0,0 46,0 46,-36"/>
<text text-anchor="middle" x="23" y="-12.57" font-family="Times New Roman,serif" font-size="14.00" fill="#000000">some</text>
</g>
<!-- this&#45;&gt;some -->
<g id="edge3" class="edge">
<title>this&#45;&gt;some</title>
<path fill="none" stroke="green" stroke-width="1.5" stroke-dasharray="5,2" d="M23,-87.4C23,-76.24 23,-61.46 23,-48.49"/>
<polygon fill="green" stroke="green" stroke-width="1.5" points="23,-46.83 27.5,-36.83 23,-41.33 23,-37.33 23,-37.33 23,-37.33 23,-41.33 18.5,-36.83 23,-46.83"/>
<text text-anchor="middle" x="36.88" y="-56.45" font-family="Times New Roman,serif" font-size="14.00" fill="#000000">qwer</text>
</g>
<!-- text -->
<g id="node3" class="node">
<title>text</title>
<polygon fill="none" stroke="blue" stroke-width="1.5" stroke-dasharray="1,5" points="100.12,-36 63.88,-36 63.88,0 100.12,0 100.12,-36"/>
<text text-anchor="middle" x="82" y="-12.57" font-family="Times New Roman,serif" font-size="14.00" fill="#000000">text</text>
</g>
<!-- word -->
<g id="node4" class="node">
<title>word</title>
<polygon fill="none" stroke="blue" stroke-width="1.5" stroke-dasharray="1,5" points="104.62,-123.75 59.38,-123.75 59.38,-87.75 104.62,-87.75 104.62,-123.75"/>
<text text-anchor="middle" x="82" y="-100.33" font-family="Times New Roman,serif" font-size="14.00" fill="#000000">word</text>
</g>
<!-- word&#45;&gt;text -->
<g id="edge2" class="edge">
<title>word&#45;&gt;text</title>
<path fill="none" stroke="green" stroke-width="1.5" stroke-dasharray="5,2" d="M82,-87.4C82,-76.24 82,-61.46 82,-48.49"/>
<polygon fill="green" stroke="green" stroke-width="1.5" points="82,-46.83 86.5,-36.83 82,-41.33 82,-37.33 82,-37.33 82,-37.33 82,-41.33 77.5,-36.83 82,-46.83"/>
<text text-anchor="middle" x="94" y="-56.45" font-family="Times New Roman,serif" font-size="14.00" fill="#000000">fusk</text>
</g>
<!-- asdf -->
<g id="node5" class="node">
<title>asdf</title>
<ellipse fill="none" stroke="black" cx="150" cy="-105.75" rx="27" ry="18"/>
<text text-anchor="middle" x="150" y="-100.33" font-family="Times New Roman,serif" font-size="14.00">asdf</text>
</g>
<g id="node6" class="node">
<title></title>
<ellipse fill="none" stroke="black" cx="150" cy="-18" rx="27" ry="18"/>
</g>
<!-- asdf&#45;&gt; -->
<g id="edge1" class="edge">
<title>asdf&#45;&gt;</title>
<path fill="none" stroke="green" stroke-width="1.5" stroke-dasharray="5,2" d="M150,-87.4C150,-76.24 150,-61.46 150,-48.49"/>
<polygon fill="green" stroke="green" stroke-width="1.5" points="150,-46.83 154.5,-36.83 150,-41.33 150,-37.33 150,-37.33 150,-37.33 150,-41.33 145.5,-36.83 150,-46.83"/>
<text text-anchor="middle" x="162" y="-56.45" font-family="Times New Roman,serif" font-size="14.00" fill="#000000">asdf</text>
</g>
</g>
</svg>
