<?xml version="1.0" encoding="UTF-8" standalone="no"?>
<!DOCTYPE svg PUBLIC "-//W3C//DTD SVG 1.1//EN"
 "http://www.w3.org/Graphics/SVG/1.1/DTD/svg11.dtd">
<!-- Generated by graphviz version 9.0.0 (20230911.1827)
 -->
<!-- Title: bde68399&#45;7bd4&#45;4603&#45;8661&#45;d26aa354c87c Pages: 1 -->
<svg width="140pt" height="116pt"
 viewBox="0.00 0.00 140.00 116.00" xmlns="http://www.w3.org/2000/svg" xmlns:xlink="http://www.w3.org/1999/xlink">
<g id="graph0" class="graph" transform="scale(1 1) rotate(0) translate(4 112)">
<title>bde68399&#45;7bd4&#45;4603&#45;8661&#45;d26aa354c87c</title>
<polygon fill="white" stroke="none" points="-4,4 -4,-112 136,-112 136,4 -4,4"/>
<!-- some -->
<g id="node1" class="node">
<title>some</title>
<polygon fill="none" stroke="black" stroke-width="1.5" stroke-dasharray="1,5" points="50,-108 4,-108 4,-72 50,-72 50,-108"/>
<text text-anchor="middle" x="27" y="-84.58" font-family="Times New Roman,serif" font-size="14.00" fill="#000000">some</text>
</g>
<!-- text -->
<g id="node3" class="node">
<title>text</title>
<ellipse fill="none" stroke="black" cx="27" cy="-18" rx="27" ry="18"/>
<text text-anchor="middle" x="27" y="-12.57" font-family="Times New Roman,serif" font-size="14.00">text</text>
</g>
<!-- some&#45;&gt;text -->
<g id="edge1" class="edge">
<title>some&#45;&gt;text</title>
<path fill="none" stroke="black" stroke-width="1.5" stroke-dasharray="5,2" d="M27,-71.7C27,-64.66 27,-56.33 27,-48.39"/>
<polygon fill="black" stroke="black" stroke-width="1.5" points="27,-46.61 31.5,-36.61 27,-41.1 27,-37.11 27,-37.11 27,-37.11 27,-41.1 22.5,-36.61 27,-46.61"/>
</g>
<!-- potatoes -->
<g id="node2" class="node">
<title>potatoes</title>
<polygon fill="none" stroke="black" stroke-width="1.5" stroke-dasharray="1,5" points="132,-108 68,-108 68,-72 132,-72 132,-108"/>
<text text-anchor="middle" x="100" y="-84.58" font-family="Times New Roman,serif" font-size="14.00" fill="#000000">potatoes</text>
</g>
</g>
</svg>
