<?xml version="1.0" encoding="UTF-8" standalone="no"?>
<!DOCTYPE svg PUBLIC "-//W3C//DTD SVG 1.1//EN"
 "http://www.w3.org/Graphics/SVG/1.1/DTD/svg11.dtd">
<!-- Generated by graphviz version 9.0.0 (20230911.1827)
 -->
<!-- Title: dca6cdab&#45;b26e&#45;4fa7&#45;89cc&#45;94e53e7aee17 Pages: 1 -->
<svg width="54pt" height="116pt"
 viewBox="0.00 0.00 54.00 116.00" xmlns="http://www.w3.org/2000/svg" xmlns:xlink="http://www.w3.org/1999/xlink">
<g id="graph0" class="graph" transform="scale(1 1) rotate(0) translate(4 112)">
<title>dca6cdab&#45;b26e&#45;4fa7&#45;89cc&#45;94e53e7aee17</title>
<polygon fill="white" stroke="none" points="-4,4 -4,-112 50,-112 50,4 -4,4"/>
<!-- some -->
<g id="node1" class="node">
<title>some</title>
<polygon fill="none" stroke="blue" stroke-width="1.5" stroke-dasharray="1,5" points="46,-108 0,-108 0,-72 46,-72 46,-108"/>
<text text-anchor="middle" x="23" y="-84.58" font-family="Times New Roman,serif" font-size="14.00" fill="#000000">some</text>
</g>
<!-- with -->
<g id="node2" class="node">
<title>with</title>
<polygon fill="none" stroke="blue" stroke-width="1.5" stroke-dasharray="1,5" points="42.62,-36 3.38,-36 3.38,0 42.62,0 42.62,-36"/>
<text text-anchor="middle" x="23" y="-12.57" font-family="Times New Roman,serif" font-size="14.00" fill="#000000">with</text>
</g>
<!-- some&#45;&gt;with -->
<g id="edge1" class="edge">
<title>some&#45;&gt;with</title>
<path fill="none" stroke="red" stroke-width="1.5" stroke-dasharray="5,2" d="M11.17,-71.7C9.72,-64.66 9.21,-56.33 9.66,-48.39"/>
<polygon fill="red" stroke="red" stroke-width="1.5" points="9.89,-46.52 15.61,-37.17 10.58,-41.06 11.08,-37.1 11.08,-37.1 11.08,-37.1 10.58,-41.06 6.68,-36.04 9.89,-46.52"/>
</g>
<!-- some&#45;&gt;with -->
<g id="edge2" class="edge">
<title>some&#45;&gt;with</title>
<path fill="none" stroke="red" stroke-width="1.5" stroke-dasharray="5,2" d="M23,-71.7C23,-64.66 23,-56.33 23,-48.39"/>
<polygon fill="red" stroke="red" stroke-width="1.5" points="23,-46.61 27.5,-36.61 23,-41.1 23,-37.11 23,-37.11 23,-37.11 23,-41.1 18.5,-36.61 23,-46.61"/>
</g>
<!-- some&#45;&gt;with -->
<g id="edge3" class="edge">
<title>some&#45;&gt;with</title>
<path fill="none" stroke="red" stroke-width="1.5" stroke-dasharray="5,2" d="M34.83,-71.7C36.28,-64.66 36.79,-56.33 36.34,-48.39"/>
<polygon fill="red" stroke="red" stroke-width="1.5" points="36.11,-46.52 39.32,-36.04 35.42,-41.06 34.92,-37.1 34.92,-37.1 34.92,-37.1 35.42,-41.06 30.39,-37.17 36.11,-46.52"/>
</g>
</g>
</svg>
